<svg width="84" height="84" viewBox="0 0 84 84" fill="none" xmlns="http://www.w3.org/2000/svg">
<path d="M42 0C18.8409 0 0 18.8409 0 42C0 65.1591 18.8409 84 42 84C65.1591 84 84 65.1591 84 42C84 18.8409 65.1591 0 42 0ZM42 78.0001C22.1489 78.0001 5.99993 61.8511 5.99993 42C5.99993 22.1489 22.1489 5.99993 42 5.99993C61.8511 5.99993 78.0001 22.1489 78.0001 42C78.0001 61.8511 61.8511 78.0001 42 78.0001Z" fill="white"/>
<path d="M42 21.9998C40.343 21.9998 39 23.3428 39 24.9998V58.9998C39 60.6568 40.343 61.9999 42 61.9999C43.6571 61.9999 45.0001 60.6568 45.0001 58.9998V24.9998C45.0001 23.3428 43.6571 21.9998 42 21.9998Z" fill="white"/>
<path d="M59 39.0001H25C23.343 39.0001 22 40.3431 22 42.0001C22 43.6571 23.343 45.0001 25 45.0001H59C60.6571 45.0001 62.0001 43.6571 62.0001 42.0001C62.0001 40.3431 60.6571 39.0001 59 39.0001Z" fill="white"/>
</svg>
