<svg width="744" height="1351" viewBox="0 0 744 1351" fill="none" xmlns="http://www.w3.org/2000/svg">
<path d="M743.5 30.1885C743.5 14.6803 729.527 2.91361 714.245 5.55325L20.7447 125.341C8.75696 127.412 0 137.811 0 149.976V1197.78C0 1209.9 8.69931 1220.28 20.6374 1222.39L714.137 1345.3C729.451 1348.01 743.5 1336.23 743.5 1320.68V30.1885Z" fill="#485BFD"/>
<g opacity="0.6" filter="url(#filter0_d)">
<path d="M41 53.5959C41 37.7867 55.4901 25.9468 70.9822 29.0974L680.982 153.151C692.63 155.52 701 165.763 701 177.649V1239.2C701 1252.27 690.94 1263.13 677.913 1264.13L67.9126 1310.94C53.3945 1312.05 41 1300.57 41 1286.01V53.5959Z" fill="#6877FF"/>
</g>
<path d="M353 564C329.841 564 311 582.841 311 606C311 629.159 329.841 648 353 648C376.159 648 395 629.159 395 606C395 582.841 376.159 564 353 564ZM353 642C333.149 642 317 625.851 317 606C317 586.149 333.149 570 353 570C372.851 570 389 586.149 389 606C389 625.851 372.851 642 353 642Z" fill="white"/>
<path d="M353 586C351.343 586 350 587.343 350 589V623C350 624.657 351.343 626 353 626C354.657 626 356 624.657 356 623V589C356 587.343 354.657 586 353 586Z" fill="white"/>
<path d="M370 603H336C334.343 603 333 604.343 333 606C333 607.657 334.343 609 336 609H370C371.657 609 373 607.657 373 606C373 604.343 371.657 603 370 603Z" fill="white"/>
<path d="M357 268C333.841 268 315 286.841 315 310C315 333.159 333.841 352 357 352C380.159 352 399 333.159 399 310C399 286.841 380.159 268 357 268ZM357 346C337.149 346 321 329.851 321 310C321 290.149 337.149 274 357 274C376.851 274 393 290.149 393 310C393 329.851 376.851 346 357 346Z" fill="white"/>
<path d="M357 290C355.343 290 354 291.343 354 293V327C354 328.657 355.343 330 357 330C358.657 330 360 328.657 360 327V293C360 291.343 358.657 290 357 290Z" fill="white"/>
<path d="M374 307H340C338.343 307 337 308.343 337 310C337 311.657 338.343 313 340 313H374C375.657 313 377 311.657 377 310C377 308.343 375.657 307 374 307Z" fill="white"/>
<path d="M249.317 404H262.109V400.712H252.989V397.184H260.909V393.896H252.989V390.488H261.989V387.2H249.317V404ZM268.689 404.096H272.001L277.065 391.136H273.273L270.369 399.752L267.489 391.136H263.625L268.689 404.096ZM284.537 404.288C286.865 404.288 288.569 403.4 289.793 401.888L287.705 400.04C286.673 400.976 285.809 401.36 284.585 401.36C282.953 401.36 281.801 400.496 281.441 398.84H290.393C290.417 398.48 290.441 398.168 290.441 397.88C290.441 394.232 288.473 390.896 284.177 390.896C280.433 390.896 277.817 393.92 277.817 397.592V397.64C277.817 401.576 280.673 404.288 284.537 404.288ZM281.393 396.56C281.681 394.904 282.641 393.824 284.177 393.824C285.713 393.824 286.673 394.928 286.889 396.56H281.393ZM293.159 404H296.807V396.824C296.807 395.096 297.671 394.208 299.087 394.208C300.503 394.208 301.295 395.096 301.295 396.824V404H304.943V395.672C304.943 392.696 303.359 390.896 300.575 390.896C298.751 390.896 297.647 391.88 296.807 392.96V391.136H293.159V404ZM312.456 404.216C313.68 404.216 314.568 403.928 315.336 403.472V400.544C314.784 400.856 314.184 401 313.536 401C312.744 401 312.36 400.592 312.36 399.752V394.256H315.384V391.136H312.36V387.848H308.712V391.136H307.176V394.256H308.712V400.352C308.712 403.328 310.248 404.216 312.456 404.216ZM325.269 404H328.917V396.824C328.917 395.096 329.781 394.208 331.197 394.208C332.613 394.208 333.405 395.096 333.405 396.824V404H337.053V395.672C337.053 392.696 335.469 390.896 332.685 390.896C330.861 390.896 329.757 391.88 328.917 392.96V386.48H325.269V404ZM340.294 389.72H344.134V386.48H340.294V389.72ZM340.39 404H344.038V391.136H340.39V404ZM353.224 407.888C355.72 407.888 357.544 407.384 358.768 406.16C359.848 405.08 360.4 403.376 360.4 401.096V391.136H356.752V392.816C355.768 391.736 354.592 390.896 352.6 390.896C349.648 390.896 346.888 393.056 346.888 396.896V396.944C346.888 400.784 349.6 402.944 352.6 402.944C354.544 402.944 355.72 402.176 356.8 400.856V401.48C356.8 403.784 355.624 404.984 353.128 404.984C351.4 404.984 350.128 404.552 348.784 403.808L347.536 406.544C349.168 407.408 351.112 407.888 353.224 407.888ZM353.656 399.92C351.856 399.92 350.536 398.744 350.536 396.944V396.896C350.536 395.144 351.88 393.92 353.656 393.92C355.456 393.92 356.8 395.144 356.8 396.896V396.944C356.8 398.696 355.456 399.92 353.656 399.92ZM363.659 404H367.307V396.824C367.307 395.096 368.171 394.208 369.587 394.208C371.003 394.208 371.795 395.096 371.795 396.824V404H375.443V395.672C375.443 392.696 373.859 390.896 371.075 390.896C369.251 390.896 368.147 391.88 367.307 392.96V386.48H363.659V404ZM378.78 404H382.428V386.48H378.78V404ZM385.927 389.72H389.767V386.48H385.927V389.72ZM386.023 404H389.671V391.136H386.023V404ZM398.857 407.888C401.353 407.888 403.177 407.384 404.401 406.16C405.481 405.08 406.033 403.376 406.033 401.096V391.136H402.385V392.816C401.401 391.736 400.225 390.896 398.233 390.896C395.281 390.896 392.521 393.056 392.521 396.896V396.944C392.521 400.784 395.233 402.944 398.233 402.944C400.177 402.944 401.353 402.176 402.433 400.856V401.48C402.433 403.784 401.257 404.984 398.761 404.984C397.033 404.984 395.761 404.552 394.417 403.808L393.169 406.544C394.801 407.408 396.745 407.888 398.857 407.888ZM399.289 399.92C397.489 399.92 396.169 398.744 396.169 396.944V396.896C396.169 395.144 397.513 393.92 399.289 393.92C401.089 393.92 402.433 395.144 402.433 396.896V396.944C402.433 398.696 401.089 399.92 399.289 399.92ZM409.292 404H412.94V396.824C412.94 395.096 413.804 394.208 415.22 394.208C416.636 394.208 417.428 395.096 417.428 396.824V404H421.076V395.672C421.076 392.696 419.492 390.896 416.708 390.896C414.884 390.896 413.78 391.88 412.94 392.96V386.48H409.292V404ZM428.589 404.216C429.813 404.216 430.701 403.928 431.469 403.472V400.544C430.917 400.856 430.317 401 429.669 401C428.877 401 428.493 400.592 428.493 399.752V394.256H431.517V391.136H428.493V387.848H424.845V391.136H423.309V394.256H424.845V400.352C424.845 403.328 426.381 404.216 428.589 404.216ZM454.89 397.328H452.754L453.378 393.776H455.73V390.704H453.906L454.506 387.2H451.338L450.738 390.704H447.258L447.858 387.2H444.69L444.09 390.704H441.45V393.776H443.562L442.938 397.328H440.61V400.4H442.41L441.81 404H444.978L445.602 400.4H449.058L448.458 404H451.626L452.226 400.4H454.89V397.328ZM446.658 393.68H450.282L449.658 397.424H446.034L446.658 393.68ZM460.846 404H464.494V387.08H461.974L457.15 388.52L457.918 391.544L460.846 390.824V404Z" fill="white"/>
<path d="M243.903 700H256.695V696.712H247.575V693.184H255.495V689.896H247.575V686.488H256.575V683.2H243.903V700ZM263.274 700.096H266.586L271.65 687.136H267.858L264.954 695.752L262.074 687.136H258.21L263.274 700.096ZM279.123 700.288C281.451 700.288 283.155 699.4 284.379 697.888L282.291 696.04C281.259 696.976 280.395 697.36 279.171 697.36C277.539 697.36 276.387 696.496 276.027 694.84H284.979C285.003 694.48 285.027 694.168 285.027 693.88C285.027 690.232 283.059 686.896 278.763 686.896C275.019 686.896 272.403 689.92 272.403 693.592V693.64C272.403 697.576 275.259 700.288 279.123 700.288ZM275.979 692.56C276.267 690.904 277.227 689.824 278.763 689.824C280.299 689.824 281.259 690.928 281.475 692.56H275.979ZM287.745 700H291.393V692.824C291.393 691.096 292.257 690.208 293.673 690.208C295.089 690.208 295.881 691.096 295.881 692.824V700H299.529V691.672C299.529 688.696 297.945 686.896 295.161 686.896C293.337 686.896 292.233 687.88 291.393 688.96V687.136H287.745V700ZM307.042 700.216C308.266 700.216 309.154 699.928 309.922 699.472V696.544C309.37 696.856 308.77 697 308.122 697C307.33 697 306.946 696.592 306.946 695.752V690.256H309.97V687.136H306.946V683.848H303.298V687.136H301.762V690.256H303.298V696.352C303.298 699.328 304.834 700.216 307.042 700.216ZM319.855 700H323.503V692.824C323.503 691.096 324.367 690.208 325.783 690.208C327.199 690.208 327.991 691.096 327.991 692.824V700H331.639V691.672C331.639 688.696 330.055 686.896 327.271 686.896C325.447 686.896 324.343 687.88 323.503 688.96V682.48H319.855V700ZM334.88 685.72H338.72V682.48H334.88V685.72ZM334.976 700H338.624V687.136H334.976V700ZM347.81 703.888C350.306 703.888 352.13 703.384 353.354 702.16C354.434 701.08 354.986 699.376 354.986 697.096V687.136H351.338V688.816C350.354 687.736 349.178 686.896 347.186 686.896C344.234 686.896 341.474 689.056 341.474 692.896V692.944C341.474 696.784 344.186 698.944 347.186 698.944C349.13 698.944 350.306 698.176 351.386 696.856V697.48C351.386 699.784 350.21 700.984 347.714 700.984C345.986 700.984 344.714 700.552 343.37 699.808L342.122 702.544C343.754 703.408 345.698 703.888 347.81 703.888ZM348.242 695.92C346.442 695.92 345.122 694.744 345.122 692.944V692.896C345.122 691.144 346.466 689.92 348.242 689.92C350.042 689.92 351.386 691.144 351.386 692.896V692.944C351.386 694.696 350.042 695.92 348.242 695.92ZM358.245 700H361.893V692.824C361.893 691.096 362.757 690.208 364.173 690.208C365.589 690.208 366.381 691.096 366.381 692.824V700H370.029V691.672C370.029 688.696 368.445 686.896 365.661 686.896C363.837 686.896 362.733 687.88 361.893 688.96V682.48H358.245V700ZM373.366 700H377.014V682.48H373.366V700ZM380.513 685.72H384.353V682.48H380.513V685.72ZM380.609 700H384.257V687.136H380.609V700ZM393.443 703.888C395.939 703.888 397.763 703.384 398.987 702.16C400.067 701.08 400.619 699.376 400.619 697.096V687.136H396.971V688.816C395.987 687.736 394.811 686.896 392.819 686.896C389.867 686.896 387.107 689.056 387.107 692.896V692.944C387.107 696.784 389.819 698.944 392.819 698.944C394.763 698.944 395.939 698.176 397.019 696.856V697.48C397.019 699.784 395.843 700.984 393.347 700.984C391.619 700.984 390.347 700.552 389.003 699.808L387.755 702.544C389.387 703.408 391.331 703.888 393.443 703.888ZM393.875 695.92C392.075 695.92 390.755 694.744 390.755 692.944V692.896C390.755 691.144 392.099 689.92 393.875 689.92C395.675 689.92 397.019 691.144 397.019 692.896V692.944C397.019 694.696 395.675 695.92 393.875 695.92ZM403.878 700H407.526V692.824C407.526 691.096 408.39 690.208 409.806 690.208C411.222 690.208 412.014 691.096 412.014 692.824V700H415.662V691.672C415.662 688.696 414.078 686.896 411.294 686.896C409.47 686.896 408.366 687.88 407.526 688.96V682.48H403.878V700ZM423.175 700.216C424.399 700.216 425.287 699.928 426.055 699.472V696.544C425.503 696.856 424.903 697 424.255 697C423.463 697 423.079 696.592 423.079 695.752V690.256H426.103V687.136H423.079V683.848H419.431V687.136H417.895V690.256H419.431V696.352C419.431 699.328 420.967 700.216 423.175 700.216ZM449.475 693.328H447.339L447.963 689.776H450.315V686.704H448.491L449.091 683.2H445.923L445.323 686.704H441.843L442.443 683.2H439.275L438.675 686.704H436.035V689.776H438.147L437.523 693.328H435.195V696.4H436.995L436.395 700H439.563L440.187 696.4H443.643L443.043 700H446.211L446.811 696.4H449.475V693.328ZM441.243 689.68H444.867L444.243 693.424H440.619L441.243 689.68ZM452.336 700H464.768V696.808H457.448L460.184 694.696C463.16 692.368 464.6 691.024 464.6 688.192V688.144C464.6 685 462.272 682.96 458.816 682.96C455.816 682.96 454.208 684.208 452.552 686.44L455.144 688.528C456.392 686.992 457.256 686.272 458.576 686.272C459.92 686.272 460.832 687.016 460.832 688.456C460.832 689.848 460.04 690.76 457.928 692.488L452.336 697.072V700Z" fill="white"/>
<path d="M251.947 439.21C253.438 439.21 254.656 438.769 255.517 437.908C256.378 437.047 256.903 435.766 256.903 434.002V424.3H254.236V433.918C254.236 435.913 253.312 436.816 251.905 436.816C250.645 436.816 249.805 436.186 248.944 435.073L247.243 436.837C248.23 438.181 249.679 439.21 251.947 439.21ZM263.531 439.231C265.232 439.231 266.261 438.349 266.996 437.278V439H269.558V427.912H266.996V434.17C266.996 435.913 265.988 436.9 264.497 436.9C262.985 436.9 262.124 435.955 262.124 434.212V427.912H259.583V434.968C259.583 437.572 261.011 439.231 263.531 439.231ZM276.093 439.21C278.403 439.21 280.209 438.055 280.209 435.724V435.682C280.209 433.687 278.361 432.952 276.765 432.448C275.463 432.049 274.266 431.671 274.266 430.873V430.831C274.266 430.222 274.833 429.739 275.82 429.739C276.744 429.739 277.878 430.138 278.949 430.789L279.957 428.983C278.781 428.206 277.29 427.723 275.883 427.723C273.678 427.723 271.935 429.004 271.935 431.125V431.167C271.935 433.267 273.783 433.96 275.4 434.401C276.702 434.8 277.878 435.115 277.878 435.955V435.997C277.878 436.732 277.248 437.194 276.156 437.194C275.001 437.194 273.762 436.732 272.523 435.829L271.389 437.551C272.796 438.664 274.497 439.21 276.093 439.21ZM285.884 439.189C286.871 439.189 287.522 438.979 288.173 438.622V436.543C287.669 436.795 287.144 436.921 286.598 436.921C285.737 436.921 285.233 436.522 285.233 435.535V430.096H288.215V427.912H285.233V424.867H282.692V427.912H281.285V430.096H282.692V435.934C282.692 438.37 284.015 439.189 285.884 439.189ZM300.018 439.21C302.328 439.21 304.134 438.055 304.134 435.724V435.682C304.134 433.687 302.286 432.952 300.69 432.448C299.388 432.049 298.191 431.671 298.191 430.873V430.831C298.191 430.222 298.758 429.739 299.745 429.739C300.669 429.739 301.803 430.138 302.874 430.789L303.882 428.983C302.706 428.206 301.215 427.723 299.808 427.723C297.603 427.723 295.86 429.004 295.86 431.125V431.167C295.86 433.267 297.708 433.96 299.325 434.401C300.627 434.8 301.803 435.115 301.803 435.955V435.997C301.803 436.732 301.173 437.194 300.081 437.194C298.926 437.194 297.687 436.732 296.448 435.829L295.314 437.551C296.721 438.664 298.422 439.21 300.018 439.21ZM311.568 439.252C314.991 439.252 317.511 436.606 317.511 433.477V433.435C317.511 430.264 315.033 427.681 311.61 427.681C308.208 427.681 305.688 430.306 305.688 433.477V433.519C305.688 436.669 308.187 439.252 311.568 439.252ZM311.61 437.026C309.657 437.026 308.229 435.409 308.229 433.477V433.435C308.229 431.503 309.531 429.907 311.568 429.907C313.563 429.907 314.97 431.524 314.97 433.477V433.519C314.97 435.43 313.689 437.026 311.61 437.026ZM319.638 439H322.2V432.742C322.2 431.041 323.145 429.991 324.573 429.991C326.001 429.991 326.82 430.936 326.82 432.679V439H329.361V432.742C329.361 430.957 330.327 429.991 331.734 429.991C333.162 429.991 333.981 430.936 333.981 432.7V439H336.522V431.923C336.522 429.214 335.073 427.681 332.637 427.681C330.957 427.681 329.802 428.458 328.899 429.634C328.311 428.458 327.177 427.681 325.581 427.681C323.88 427.681 322.914 428.605 322.2 429.592V427.912H319.638V439ZM344.235 439.252C346.272 439.252 347.7 438.433 348.771 437.173L347.28 435.85C346.377 436.711 345.537 437.173 344.277 437.173C342.618 437.173 341.358 436.186 341.085 434.359H349.233C349.254 434.107 349.275 433.876 349.275 433.645C349.275 430.453 347.49 427.681 343.962 427.681C340.791 427.681 338.544 430.264 338.544 433.456V433.498C338.544 436.921 341.043 439.252 344.235 439.252ZM341.064 432.679C341.295 430.936 342.366 429.76 343.941 429.76C345.621 429.76 346.587 431.062 346.755 432.679H341.064ZM361.043 439.21C363.353 439.21 365.159 438.055 365.159 435.724V435.682C365.159 433.687 363.311 432.952 361.715 432.448C360.413 432.049 359.216 431.671 359.216 430.873V430.831C359.216 430.222 359.783 429.739 360.77 429.739C361.694 429.739 362.828 430.138 363.899 430.789L364.907 428.983C363.731 428.206 362.24 427.723 360.833 427.723C358.628 427.723 356.885 429.004 356.885 431.125V431.167C356.885 433.267 358.733 433.96 360.35 434.401C361.652 434.8 362.828 435.115 362.828 435.955V435.997C362.828 436.732 362.198 437.194 361.106 437.194C359.951 437.194 358.712 436.732 357.473 435.829L356.339 437.551C357.746 438.664 359.447 439.21 361.043 439.21ZM371.145 439.231C372.846 439.231 373.875 438.349 374.61 437.278V439H377.172V427.912H374.61V434.17C374.61 435.913 373.602 436.9 372.111 436.9C370.599 436.9 369.738 435.955 369.738 434.212V427.912H367.197V434.968C367.197 437.572 368.625 439.231 371.145 439.231ZM379.884 442.36H382.446V437.278C383.223 438.307 384.378 439.231 386.226 439.231C388.851 439.231 391.371 437.173 391.371 433.477V433.435C391.371 429.739 388.83 427.681 386.226 427.681C384.399 427.681 383.265 428.605 382.446 429.76V427.912H379.884V442.36ZM385.617 437.026C383.874 437.026 382.383 435.598 382.383 433.477V433.435C382.383 431.314 383.874 429.886 385.617 429.886C387.318 429.886 388.788 431.293 388.788 433.435V433.477C388.788 435.661 387.36 437.026 385.617 437.026ZM393.533 442.36H396.095V437.278C396.872 438.307 398.027 439.231 399.875 439.231C402.5 439.231 405.02 437.173 405.02 433.477V433.435C405.02 429.739 402.479 427.681 399.875 427.681C398.048 427.681 396.914 428.605 396.095 429.76V427.912H393.533V442.36ZM399.266 437.026C397.523 437.026 396.032 435.598 396.032 433.477V433.435C396.032 431.314 397.523 429.886 399.266 429.886C400.967 429.886 402.437 431.293 402.437 433.435V433.477C402.437 435.661 401.009 437.026 399.266 437.026ZM412.474 439.252C415.897 439.252 418.417 436.606 418.417 433.477V433.435C418.417 430.264 415.939 427.681 412.516 427.681C409.114 427.681 406.594 430.306 406.594 433.477V433.519C406.594 436.669 409.093 439.252 412.474 439.252ZM412.516 437.026C410.563 437.026 409.135 435.409 409.135 433.477V433.435C409.135 431.503 410.437 429.907 412.474 429.907C414.469 429.907 415.876 431.524 415.876 433.477V433.519C415.876 435.43 414.595 437.026 412.516 437.026ZM420.544 439H423.106V434.779C423.106 431.839 424.639 430.39 426.886 430.39H427.033V427.702C425.08 427.618 423.799 428.731 423.106 430.411V427.912H420.544V439ZM432.517 439.189C433.504 439.189 434.155 438.979 434.806 438.622V436.543C434.302 436.795 433.777 436.921 433.231 436.921C432.37 436.921 431.866 436.522 431.866 435.535V430.096H434.848V427.912H431.866V424.867H429.325V427.912H427.918V430.096H429.325V435.934C429.325 438.37 430.648 439.189 432.517 439.189ZM437.036 426.211H439.766V423.796H437.036V426.211ZM437.12 439H439.682V427.912H437.12V439ZM442.541 439H445.103V432.742C445.103 430.999 446.111 429.991 447.602 429.991C449.114 429.991 449.975 430.957 449.975 432.7V439H452.516V431.923C452.516 429.34 451.088 427.681 448.568 427.681C446.825 427.681 445.838 428.584 445.103 429.613V427.912H442.541V439ZM460.08 442.402C462.096 442.402 463.629 441.919 464.637 440.911C465.582 439.966 466.044 438.58 466.044 436.732V427.912H463.503V429.571C462.642 428.542 461.487 427.681 459.618 427.681C457.014 427.681 454.578 429.613 454.578 432.889V432.931C454.578 436.186 456.993 438.118 459.618 438.118C461.445 438.118 462.6 437.278 463.524 436.102V436.942C463.524 439.189 462.285 440.323 460.017 440.323C458.505 440.323 457.266 439.903 456.069 439.168L455.124 441.079C456.573 441.961 458.232 442.402 460.08 442.402ZM460.29 435.955C458.547 435.955 457.14 434.716 457.14 432.91V432.868C457.14 431.041 458.526 429.844 460.29 429.844C462.054 429.844 463.545 431.083 463.545 432.868V432.91C463.545 434.716 462.054 435.955 460.29 435.955ZM277.221 471.252C279.384 471.252 280.665 470.412 281.757 469.173L280.224 467.661C279.405 468.48 278.544 469.026 277.347 469.026C275.394 469.026 274.029 467.451 274.029 465.477V465.435C274.029 463.503 275.394 461.907 277.242 461.907C278.502 461.907 279.321 462.474 280.098 463.293L281.694 461.592C280.623 460.458 279.342 459.681 277.263 459.681C273.924 459.681 271.488 462.327 271.488 465.477V465.519C271.488 468.669 273.924 471.252 277.221 471.252ZM288.617 471.252C292.04 471.252 294.56 468.606 294.56 465.477V465.435C294.56 462.264 292.082 459.681 288.659 459.681C285.257 459.681 282.737 462.306 282.737 465.477V465.519C282.737 468.669 285.236 471.252 288.617 471.252ZM288.659 469.026C286.706 469.026 285.278 467.409 285.278 465.477V465.435C285.278 463.503 286.58 461.907 288.617 461.907C290.612 461.907 292.019 463.524 292.019 465.477V465.519C292.019 467.43 290.738 469.026 288.659 469.026ZM296.687 474.36H299.249V469.278C300.026 470.307 301.181 471.231 303.029 471.231C305.654 471.231 308.174 469.173 308.174 465.477V465.435C308.174 461.739 305.633 459.681 303.029 459.681C301.202 459.681 300.068 460.605 299.249 461.76V459.912H296.687V474.36ZM302.42 469.026C300.677 469.026 299.186 467.598 299.186 465.477V465.435C299.186 463.314 300.677 461.886 302.42 461.886C304.121 461.886 305.591 463.293 305.591 465.435V465.477C305.591 467.661 304.163 469.026 302.42 469.026ZM314.612 468.144L311.504 459.912H308.774L313.394 471.021C312.974 471.966 312.554 472.281 311.819 472.281C311.294 472.281 310.811 472.113 310.328 471.861L309.467 473.73C310.244 474.171 311.021 474.423 312.092 474.423C313.877 474.423 314.843 473.583 315.746 471.294L320.156 459.912H317.51L314.612 468.144ZM328.316 471H330.857V462.096H333.755V459.996H330.815V459.387C330.815 458.274 331.298 457.707 332.285 457.707C332.852 457.707 333.272 457.812 333.776 457.98V455.838C333.209 455.67 332.6 455.544 331.697 455.544C330.626 455.544 329.807 455.838 329.219 456.426C328.61 457.035 328.316 457.938 328.316 459.156V459.975H326.909V462.096H328.316V471ZM340.271 471.252C343.694 471.252 346.214 468.606 346.214 465.477V465.435C346.214 462.264 343.736 459.681 340.313 459.681C336.911 459.681 334.391 462.306 334.391 465.477V465.519C334.391 468.669 336.89 471.252 340.271 471.252ZM340.313 469.026C338.36 469.026 336.932 467.409 336.932 465.477V465.435C336.932 463.503 338.234 461.907 340.271 461.907C342.266 461.907 343.673 463.524 343.673 465.477V465.519C343.673 467.43 342.392 469.026 340.313 469.026ZM348.341 471H350.903V466.779C350.903 463.839 352.436 462.39 354.683 462.39H354.83V459.702C352.877 459.618 351.596 460.731 350.903 462.411V459.912H348.341V471ZM366.169 471.189C367.156 471.189 367.807 470.979 368.458 470.622V468.543C367.954 468.795 367.429 468.921 366.883 468.921C366.022 468.921 365.518 468.522 365.518 467.535V462.096H368.5V459.912H365.518V456.867H362.977V459.912H361.57V462.096H362.977V467.934C362.977 470.37 364.3 471.189 366.169 471.189ZM370.625 471H373.187V464.742C373.187 462.999 374.195 461.991 375.686 461.991C377.198 461.991 378.059 462.957 378.059 464.7V471H380.6V463.923C380.6 461.34 379.172 459.681 376.652 459.681C374.909 459.681 373.922 460.584 373.187 461.613V455.67H370.625V471ZM388.311 471.252C390.348 471.252 391.776 470.433 392.847 469.173L391.356 467.85C390.453 468.711 389.613 469.173 388.353 469.173C386.694 469.173 385.434 468.186 385.161 466.359H393.309C393.33 466.107 393.351 465.876 393.351 465.645C393.351 462.453 391.566 459.681 388.038 459.681C384.867 459.681 382.62 462.264 382.62 465.456V465.498C382.62 468.921 385.119 471.252 388.311 471.252ZM385.14 464.679C385.371 462.936 386.442 461.76 388.017 461.76C389.697 461.76 390.663 463.062 390.831 464.679H385.14ZM401.36 458.211H404.09V455.796H401.36V458.211ZM401.444 471H404.006V459.912H401.444V471ZM411.465 471.231C413.25 471.231 414.426 470.307 415.245 469.152V471H417.786V455.67H415.245V461.634C414.468 460.584 413.271 459.681 411.465 459.681C408.819 459.681 406.32 461.739 406.32 465.435V465.477C406.32 469.173 408.861 471.231 411.465 471.231ZM412.074 469.026C410.331 469.026 408.882 467.619 408.882 465.477V465.435C408.882 463.251 410.331 461.886 412.074 461.886C413.775 461.886 415.287 463.293 415.287 465.435V465.477C415.287 467.598 413.775 469.026 412.074 469.026ZM425.618 471.252C427.655 471.252 429.083 470.433 430.154 469.173L428.663 467.85C427.76 468.711 426.92 469.173 425.66 469.173C424.001 469.173 422.741 468.186 422.468 466.359H430.616C430.637 466.107 430.658 465.876 430.658 465.645C430.658 462.453 428.873 459.681 425.345 459.681C422.174 459.681 419.927 462.264 419.927 465.456V465.498C419.927 468.921 422.426 471.252 425.618 471.252ZM422.447 464.679C422.678 462.936 423.749 461.76 425.324 461.76C427.004 461.76 427.97 463.062 428.138 464.679H422.447ZM435.962 471.231C437.663 471.231 438.818 470.517 439.574 469.614V471H442.052V464.427C442.052 462.978 441.674 461.823 440.855 461.004C440.057 460.185 438.839 459.765 437.18 459.765C435.416 459.765 434.219 460.143 432.98 460.668L433.673 462.663C434.681 462.243 435.584 461.97 436.844 461.97C438.629 461.97 439.595 462.789 439.595 464.385V464.658C438.734 464.385 437.873 464.196 436.613 464.196C433.904 464.196 432.014 465.351 432.014 467.766V467.808C432.014 470.055 433.883 471.231 435.962 471.231ZM436.676 469.383C435.437 469.383 434.513 468.774 434.513 467.703V467.661C434.513 466.485 435.458 465.813 437.117 465.813C438.125 465.813 438.986 466.002 439.637 466.254V467.01C439.637 468.438 438.356 469.383 436.676 469.383Z" fill="white"/>
<path d="M248.947 735.21C250.438 735.21 251.656 734.769 252.517 733.908C253.378 733.047 253.903 731.766 253.903 730.002V720.3H251.236V729.918C251.236 731.913 250.312 732.816 248.905 732.816C247.645 732.816 246.805 732.186 245.944 731.073L244.243 732.837C245.23 734.181 246.679 735.21 248.947 735.21ZM260.531 735.231C262.232 735.231 263.261 734.349 263.996 733.278V735H266.558V723.912H263.996V730.17C263.996 731.913 262.988 732.9 261.497 732.9C259.985 732.9 259.124 731.955 259.124 730.212V723.912H256.583V730.968C256.583 733.572 258.011 735.231 260.531 735.231ZM273.093 735.21C275.403 735.21 277.209 734.055 277.209 731.724V731.682C277.209 729.687 275.361 728.952 273.765 728.448C272.463 728.049 271.266 727.671 271.266 726.873V726.831C271.266 726.222 271.833 725.739 272.82 725.739C273.744 725.739 274.878 726.138 275.949 726.789L276.957 724.983C275.781 724.206 274.29 723.723 272.883 723.723C270.678 723.723 268.935 725.004 268.935 727.125V727.167C268.935 729.267 270.783 729.96 272.4 730.401C273.702 730.8 274.878 731.115 274.878 731.955V731.997C274.878 732.732 274.248 733.194 273.156 733.194C272.001 733.194 270.762 732.732 269.523 731.829L268.389 733.551C269.796 734.664 271.497 735.21 273.093 735.21ZM282.884 735.189C283.871 735.189 284.522 734.979 285.173 734.622V732.543C284.669 732.795 284.144 732.921 283.598 732.921C282.737 732.921 282.233 732.522 282.233 731.535V726.096H285.215V723.912H282.233V720.867H279.692V723.912H278.285V726.096H279.692V731.934C279.692 734.37 281.015 735.189 282.884 735.189ZM297.018 735.21C299.328 735.21 301.134 734.055 301.134 731.724V731.682C301.134 729.687 299.286 728.952 297.69 728.448C296.388 728.049 295.191 727.671 295.191 726.873V726.831C295.191 726.222 295.758 725.739 296.745 725.739C297.669 725.739 298.803 726.138 299.874 726.789L300.882 724.983C299.706 724.206 298.215 723.723 296.808 723.723C294.603 723.723 292.86 725.004 292.86 727.125V727.167C292.86 729.267 294.708 729.96 296.325 730.401C297.627 730.8 298.803 731.115 298.803 731.955V731.997C298.803 732.732 298.173 733.194 297.081 733.194C295.926 733.194 294.687 732.732 293.448 731.829L292.314 733.551C293.721 734.664 295.422 735.21 297.018 735.21ZM308.568 735.252C311.991 735.252 314.511 732.606 314.511 729.477V729.435C314.511 726.264 312.033 723.681 308.61 723.681C305.208 723.681 302.688 726.306 302.688 729.477V729.519C302.688 732.669 305.187 735.252 308.568 735.252ZM308.61 733.026C306.657 733.026 305.229 731.409 305.229 729.477V729.435C305.229 727.503 306.531 725.907 308.568 725.907C310.563 725.907 311.97 727.524 311.97 729.477V729.519C311.97 731.43 310.689 733.026 308.61 733.026ZM316.638 735H319.2V728.742C319.2 727.041 320.145 725.991 321.573 725.991C323.001 725.991 323.82 726.936 323.82 728.679V735H326.361V728.742C326.361 726.957 327.327 725.991 328.734 725.991C330.162 725.991 330.981 726.936 330.981 728.7V735H333.522V727.923C333.522 725.214 332.073 723.681 329.637 723.681C327.957 723.681 326.802 724.458 325.899 725.634C325.311 724.458 324.177 723.681 322.581 723.681C320.88 723.681 319.914 724.605 319.2 725.592V723.912H316.638V735ZM341.235 735.252C343.272 735.252 344.7 734.433 345.771 733.173L344.28 731.85C343.377 732.711 342.537 733.173 341.277 733.173C339.618 733.173 338.358 732.186 338.085 730.359H346.233C346.254 730.107 346.275 729.876 346.275 729.645C346.275 726.453 344.49 723.681 340.962 723.681C337.791 723.681 335.544 726.264 335.544 729.456V729.498C335.544 732.921 338.043 735.252 341.235 735.252ZM338.064 728.679C338.295 726.936 339.366 725.76 340.941 725.76C342.621 725.76 343.587 727.062 343.755 728.679H338.064ZM358.043 735.21C360.353 735.21 362.159 734.055 362.159 731.724V731.682C362.159 729.687 360.311 728.952 358.715 728.448C357.413 728.049 356.216 727.671 356.216 726.873V726.831C356.216 726.222 356.783 725.739 357.77 725.739C358.694 725.739 359.828 726.138 360.899 726.789L361.907 724.983C360.731 724.206 359.24 723.723 357.833 723.723C355.628 723.723 353.885 725.004 353.885 727.125V727.167C353.885 729.267 355.733 729.96 357.35 730.401C358.652 730.8 359.828 731.115 359.828 731.955V731.997C359.828 732.732 359.198 733.194 358.106 733.194C356.951 733.194 355.712 732.732 354.473 731.829L353.339 733.551C354.746 734.664 356.447 735.21 358.043 735.21ZM368.145 735.231C369.846 735.231 370.875 734.349 371.61 733.278V735H374.172V723.912H371.61V730.17C371.61 731.913 370.602 732.9 369.111 732.9C367.599 732.9 366.738 731.955 366.738 730.212V723.912H364.197V730.968C364.197 733.572 365.625 735.231 368.145 735.231ZM376.884 738.36H379.446V733.278C380.223 734.307 381.378 735.231 383.226 735.231C385.851 735.231 388.371 733.173 388.371 729.477V729.435C388.371 725.739 385.83 723.681 383.226 723.681C381.399 723.681 380.265 724.605 379.446 725.76V723.912H376.884V738.36ZM382.617 733.026C380.874 733.026 379.383 731.598 379.383 729.477V729.435C379.383 727.314 380.874 725.886 382.617 725.886C384.318 725.886 385.788 727.293 385.788 729.435V729.477C385.788 731.661 384.36 733.026 382.617 733.026ZM390.533 738.36H393.095V733.278C393.872 734.307 395.027 735.231 396.875 735.231C399.5 735.231 402.02 733.173 402.02 729.477V729.435C402.02 725.739 399.479 723.681 396.875 723.681C395.048 723.681 393.914 724.605 393.095 725.76V723.912H390.533V738.36ZM396.266 733.026C394.523 733.026 393.032 731.598 393.032 729.477V729.435C393.032 727.314 394.523 725.886 396.266 725.886C397.967 725.886 399.437 727.293 399.437 729.435V729.477C399.437 731.661 398.009 733.026 396.266 733.026ZM409.474 735.252C412.897 735.252 415.417 732.606 415.417 729.477V729.435C415.417 726.264 412.939 723.681 409.516 723.681C406.114 723.681 403.594 726.306 403.594 729.477V729.519C403.594 732.669 406.093 735.252 409.474 735.252ZM409.516 733.026C407.563 733.026 406.135 731.409 406.135 729.477V729.435C406.135 727.503 407.437 725.907 409.474 725.907C411.469 725.907 412.876 727.524 412.876 729.477V729.519C412.876 731.43 411.595 733.026 409.516 733.026ZM417.544 735H420.106V730.779C420.106 727.839 421.639 726.39 423.886 726.39H424.033V723.702C422.08 723.618 420.799 724.731 420.106 726.411V723.912H417.544V735ZM429.517 735.189C430.504 735.189 431.155 734.979 431.806 734.622V732.543C431.302 732.795 430.777 732.921 430.231 732.921C429.37 732.921 428.866 732.522 428.866 731.535V726.096H431.848V723.912H428.866V720.867H426.325V723.912H424.918V726.096H426.325V731.934C426.325 734.37 427.648 735.189 429.517 735.189ZM434.036 722.211H436.766V719.796H434.036V722.211ZM434.12 735H436.682V723.912H434.12V735ZM439.541 735H442.103V728.742C442.103 726.999 443.111 725.991 444.602 725.991C446.114 725.991 446.975 726.957 446.975 728.7V735H449.516V727.923C449.516 725.34 448.088 723.681 445.568 723.681C443.825 723.681 442.838 724.584 442.103 725.613V723.912H439.541V735ZM457.08 738.402C459.096 738.402 460.629 737.919 461.637 736.911C462.582 735.966 463.044 734.58 463.044 732.732V723.912H460.503V725.571C459.642 724.542 458.487 723.681 456.618 723.681C454.014 723.681 451.578 725.613 451.578 728.889V728.931C451.578 732.186 453.993 734.118 456.618 734.118C458.445 734.118 459.6 733.278 460.524 732.102V732.942C460.524 735.189 459.285 736.323 457.017 736.323C455.505 736.323 454.266 735.903 453.069 735.168L452.124 737.079C453.573 737.961 455.232 738.402 457.08 738.402ZM457.29 731.955C455.547 731.955 454.14 730.716 454.14 728.91V728.868C454.14 727.041 455.526 725.844 457.29 725.844C459.054 725.844 460.545 727.083 460.545 728.868V728.91C460.545 730.716 459.054 731.955 457.29 731.955ZM274.221 767.252C276.384 767.252 277.665 766.412 278.757 765.173L277.224 763.661C276.405 764.48 275.544 765.026 274.347 765.026C272.394 765.026 271.029 763.451 271.029 761.477V761.435C271.029 759.503 272.394 757.907 274.242 757.907C275.502 757.907 276.321 758.474 277.098 759.293L278.694 757.592C277.623 756.458 276.342 755.681 274.263 755.681C270.924 755.681 268.488 758.327 268.488 761.477V761.519C268.488 764.669 270.924 767.252 274.221 767.252ZM285.617 767.252C289.04 767.252 291.56 764.606 291.56 761.477V761.435C291.56 758.264 289.082 755.681 285.659 755.681C282.257 755.681 279.737 758.306 279.737 761.477V761.519C279.737 764.669 282.236 767.252 285.617 767.252ZM285.659 765.026C283.706 765.026 282.278 763.409 282.278 761.477V761.435C282.278 759.503 283.58 757.907 285.617 757.907C287.612 757.907 289.019 759.524 289.019 761.477V761.519C289.019 763.43 287.738 765.026 285.659 765.026ZM293.687 770.36H296.249V765.278C297.026 766.307 298.181 767.231 300.029 767.231C302.654 767.231 305.174 765.173 305.174 761.477V761.435C305.174 757.739 302.633 755.681 300.029 755.681C298.202 755.681 297.068 756.605 296.249 757.76V755.912H293.687V770.36ZM299.42 765.026C297.677 765.026 296.186 763.598 296.186 761.477V761.435C296.186 759.314 297.677 757.886 299.42 757.886C301.121 757.886 302.591 759.293 302.591 761.435V761.477C302.591 763.661 301.163 765.026 299.42 765.026ZM311.612 764.144L308.504 755.912H305.774L310.394 767.021C309.974 767.966 309.554 768.281 308.819 768.281C308.294 768.281 307.811 768.113 307.328 767.861L306.467 769.73C307.244 770.171 308.021 770.423 309.092 770.423C310.877 770.423 311.843 769.583 312.746 767.294L317.156 755.912H314.51L311.612 764.144ZM325.316 767H327.857V758.096H330.755V755.996H327.815V755.387C327.815 754.274 328.298 753.707 329.285 753.707C329.852 753.707 330.272 753.812 330.776 753.98V751.838C330.209 751.67 329.6 751.544 328.697 751.544C327.626 751.544 326.807 751.838 326.219 752.426C325.61 753.035 325.316 753.938 325.316 755.156V755.975H323.909V758.096H325.316V767ZM337.271 767.252C340.694 767.252 343.214 764.606 343.214 761.477V761.435C343.214 758.264 340.736 755.681 337.313 755.681C333.911 755.681 331.391 758.306 331.391 761.477V761.519C331.391 764.669 333.89 767.252 337.271 767.252ZM337.313 765.026C335.36 765.026 333.932 763.409 333.932 761.477V761.435C333.932 759.503 335.234 757.907 337.271 757.907C339.266 757.907 340.673 759.524 340.673 761.477V761.519C340.673 763.43 339.392 765.026 337.313 765.026ZM345.341 767H347.903V762.779C347.903 759.839 349.436 758.39 351.683 758.39H351.83V755.702C349.877 755.618 348.596 756.731 347.903 758.411V755.912H345.341V767ZM363.169 767.189C364.156 767.189 364.807 766.979 365.458 766.622V764.543C364.954 764.795 364.429 764.921 363.883 764.921C363.022 764.921 362.518 764.522 362.518 763.535V758.096H365.5V755.912H362.518V752.867H359.977V755.912H358.57V758.096H359.977V763.934C359.977 766.37 361.3 767.189 363.169 767.189ZM367.625 767H370.187V760.742C370.187 758.999 371.195 757.991 372.686 757.991C374.198 757.991 375.059 758.957 375.059 760.7V767H377.6V759.923C377.6 757.34 376.172 755.681 373.652 755.681C371.909 755.681 370.922 756.584 370.187 757.613V751.67H367.625V767ZM385.311 767.252C387.348 767.252 388.776 766.433 389.847 765.173L388.356 763.85C387.453 764.711 386.613 765.173 385.353 765.173C383.694 765.173 382.434 764.186 382.161 762.359H390.309C390.33 762.107 390.351 761.876 390.351 761.645C390.351 758.453 388.566 755.681 385.038 755.681C381.867 755.681 379.62 758.264 379.62 761.456V761.498C379.62 764.921 382.119 767.252 385.311 767.252ZM382.14 760.679C382.371 758.936 383.442 757.76 385.017 757.76C386.697 757.76 387.663 759.062 387.831 760.679H382.14ZM398.36 754.211H401.09V751.796H398.36V754.211ZM398.444 767H401.006V755.912H398.444V767ZM408.465 767.231C410.25 767.231 411.426 766.307 412.245 765.152V767H414.786V751.67H412.245V757.634C411.468 756.584 410.271 755.681 408.465 755.681C405.819 755.681 403.32 757.739 403.32 761.435V761.477C403.32 765.173 405.861 767.231 408.465 767.231ZM409.074 765.026C407.331 765.026 405.882 763.619 405.882 761.477V761.435C405.882 759.251 407.331 757.886 409.074 757.886C410.775 757.886 412.287 759.293 412.287 761.435V761.477C412.287 763.598 410.775 765.026 409.074 765.026ZM422.618 767.252C424.655 767.252 426.083 766.433 427.154 765.173L425.663 763.85C424.76 764.711 423.92 765.173 422.66 765.173C421.001 765.173 419.741 764.186 419.468 762.359H427.616C427.637 762.107 427.658 761.876 427.658 761.645C427.658 758.453 425.873 755.681 422.345 755.681C419.174 755.681 416.927 758.264 416.927 761.456V761.498C416.927 764.921 419.426 767.252 422.618 767.252ZM419.447 760.679C419.678 758.936 420.749 757.76 422.324 757.76C424.004 757.76 424.97 759.062 425.138 760.679H419.447ZM432.962 767.231C434.663 767.231 435.818 766.517 436.574 765.614V767H439.052V760.427C439.052 758.978 438.674 757.823 437.855 757.004C437.057 756.185 435.839 755.765 434.18 755.765C432.416 755.765 431.219 756.143 429.98 756.668L430.673 758.663C431.681 758.243 432.584 757.97 433.844 757.97C435.629 757.97 436.595 758.789 436.595 760.385V760.658C435.734 760.385 434.873 760.196 433.613 760.196C430.904 760.196 429.014 761.351 429.014 763.766V763.808C429.014 766.055 430.883 767.231 432.962 767.231ZM433.676 765.383C432.437 765.383 431.513 764.774 431.513 763.703V763.661C431.513 762.485 432.458 761.813 434.117 761.813C435.125 761.813 435.986 762.002 436.637 762.254V763.01C436.637 764.438 435.356 765.383 433.676 765.383Z" fill="white"/>
<path d="M350 852C326.841 852 308 870.841 308 894C308 917.159 326.841 936 350 936C373.159 936 392 917.159 392 894C392 870.841 373.159 852 350 852ZM350 930C330.149 930 314 913.851 314 894C314 874.149 330.149 858 350 858C369.851 858 386 874.149 386 894C386 913.851 369.851 930 350 930Z" fill="white"/>
<path d="M350 874C348.343 874 347 875.343 347 877V911C347 912.657 348.343 914 350 914C351.657 914 353 912.657 353 911V877C353 875.343 351.657 874 350 874Z" fill="white"/>
<path d="M367 891H333C331.343 891 330 892.343 330 894C330 895.657 331.343 897 333 897H367C368.657 897 370 895.657 370 894C370 892.343 368.657 891 367 891Z" fill="white"/>
<path d="M239.926 988H252.718V984.712H243.598V981.184H251.518V977.896H243.598V974.488H252.598V971.2H239.926V988ZM259.298 988.096H262.61L267.674 975.136H263.882L260.978 983.752L258.098 975.136H254.234L259.298 988.096ZM275.146 988.288C277.474 988.288 279.178 987.4 280.402 985.888L278.314 984.04C277.282 984.976 276.418 985.36 275.194 985.36C273.562 985.36 272.41 984.496 272.05 982.84H281.002C281.026 982.48 281.05 982.168 281.05 981.88C281.05 978.232 279.082 974.896 274.786 974.896C271.042 974.896 268.426 977.92 268.426 981.592V981.64C268.426 985.576 271.282 988.288 275.146 988.288ZM272.002 980.56C272.29 978.904 273.25 977.824 274.786 977.824C276.322 977.824 277.282 978.928 277.498 980.56H272.002ZM283.769 988H287.417V980.824C287.417 979.096 288.281 978.208 289.697 978.208C291.113 978.208 291.905 979.096 291.905 980.824V988H295.553V979.672C295.553 976.696 293.969 974.896 291.185 974.896C289.361 974.896 288.257 975.88 287.417 976.96V975.136H283.769V988ZM303.066 988.216C304.29 988.216 305.178 987.928 305.946 987.472V984.544C305.394 984.856 304.794 985 304.146 985C303.354 985 302.97 984.592 302.97 983.752V978.256H305.994V975.136H302.97V971.848H299.322V975.136H297.786V978.256H299.322V984.352C299.322 987.328 300.858 988.216 303.066 988.216ZM315.878 988H319.526V980.824C319.526 979.096 320.39 978.208 321.806 978.208C323.222 978.208 324.014 979.096 324.014 980.824V988H327.662V979.672C327.662 976.696 326.078 974.896 323.294 974.896C321.47 974.896 320.366 975.88 319.526 976.96V970.48H315.878V988ZM330.903 973.72H334.743V970.48H330.903V973.72ZM330.999 988H334.647V975.136H330.999V988ZM343.833 991.888C346.329 991.888 348.153 991.384 349.377 990.16C350.457 989.08 351.009 987.376 351.009 985.096V975.136H347.361V976.816C346.377 975.736 345.201 974.896 343.209 974.896C340.257 974.896 337.497 977.056 337.497 980.896V980.944C337.497 984.784 340.209 986.944 343.209 986.944C345.153 986.944 346.329 986.176 347.409 984.856V985.48C347.409 987.784 346.233 988.984 343.737 988.984C342.009 988.984 340.737 988.552 339.393 987.808L338.145 990.544C339.777 991.408 341.721 991.888 343.833 991.888ZM344.265 983.92C342.465 983.92 341.145 982.744 341.145 980.944V980.896C341.145 979.144 342.489 977.92 344.265 977.92C346.065 977.92 347.409 979.144 347.409 980.896V980.944C347.409 982.696 346.065 983.92 344.265 983.92ZM354.269 988H357.917V980.824C357.917 979.096 358.781 978.208 360.197 978.208C361.613 978.208 362.405 979.096 362.405 980.824V988H366.053V979.672C366.053 976.696 364.469 974.896 361.685 974.896C359.861 974.896 358.757 975.88 357.917 976.96V970.48H354.269V988ZM369.39 988H373.038V970.48H369.39V988ZM376.536 973.72H380.376V970.48H376.536V973.72ZM376.632 988H380.28V975.136H376.632V988ZM389.466 991.888C391.962 991.888 393.786 991.384 395.01 990.16C396.09 989.08 396.642 987.376 396.642 985.096V975.136H392.994V976.816C392.01 975.736 390.834 974.896 388.842 974.896C385.89 974.896 383.13 977.056 383.13 980.896V980.944C383.13 984.784 385.842 986.944 388.842 986.944C390.786 986.944 391.962 986.176 393.042 984.856V985.48C393.042 987.784 391.866 988.984 389.37 988.984C387.642 988.984 386.37 988.552 385.026 987.808L383.778 990.544C385.41 991.408 387.354 991.888 389.466 991.888ZM389.898 983.92C388.098 983.92 386.778 982.744 386.778 980.944V980.896C386.778 979.144 388.122 977.92 389.898 977.92C391.698 977.92 393.042 979.144 393.042 980.896V980.944C393.042 982.696 391.698 983.92 389.898 983.92ZM399.902 988H403.55V980.824C403.55 979.096 404.414 978.208 405.83 978.208C407.246 978.208 408.038 979.096 408.038 980.824V988H411.686V979.672C411.686 976.696 410.102 974.896 407.318 974.896C405.494 974.896 404.39 975.88 403.55 976.96V970.48H399.902V988ZM419.199 988.216C420.423 988.216 421.311 987.928 422.079 987.472V984.544C421.527 984.856 420.927 985 420.279 985C419.487 985 419.103 984.592 419.103 983.752V978.256H422.127V975.136H419.103V971.848H415.455V975.136H413.919V978.256H415.455V984.352C415.455 987.328 416.991 988.216 419.199 988.216ZM445.499 981.328H443.363L443.987 977.776H446.339V974.704H444.515L445.115 971.2H441.947L441.347 974.704H437.867L438.467 971.2H435.299L434.699 974.704H432.059V977.776H434.171L433.547 981.328H431.219V984.4H433.019L432.419 988H435.587L436.211 984.4H439.667L439.067 988H442.235L442.835 984.4H445.499V981.328ZM437.267 977.68H440.891L440.267 981.424H436.643L437.267 977.68ZM454.648 988.288C458.392 988.288 460.696 985.96 460.696 982.792V982.744C460.696 979.6 458.464 978.424 456.184 978.04L460.432 973.984V971.2H449.08V974.368H455.68L451.672 978.4L452.248 980.752H453.784C455.872 980.752 457.072 981.52 457.072 982.888V982.936C457.072 984.184 456.112 984.976 454.696 984.976C452.968 984.976 451.792 984.28 450.64 982.96L448.096 985.384C449.536 987.112 451.6 988.288 454.648 988.288Z" fill="white"/>
<path d="M244.947 1023.21C246.438 1023.21 247.656 1022.77 248.517 1021.91C249.378 1021.05 249.903 1019.77 249.903 1018V1008.3H247.236V1017.92C247.236 1019.91 246.312 1020.82 244.905 1020.82C243.645 1020.82 242.805 1020.19 241.944 1019.07L240.243 1020.84C241.23 1022.18 242.679 1023.21 244.947 1023.21ZM256.531 1023.23C258.232 1023.23 259.261 1022.35 259.996 1021.28V1023H262.558V1011.91H259.996V1018.17C259.996 1019.91 258.988 1020.9 257.497 1020.9C255.985 1020.9 255.124 1019.95 255.124 1018.21V1011.91H252.583V1018.97C252.583 1021.57 254.011 1023.23 256.531 1023.23ZM269.093 1023.21C271.403 1023.21 273.209 1022.05 273.209 1019.72V1019.68C273.209 1017.69 271.361 1016.95 269.765 1016.45C268.463 1016.05 267.266 1015.67 267.266 1014.87V1014.83C267.266 1014.22 267.833 1013.74 268.82 1013.74C269.744 1013.74 270.878 1014.14 271.949 1014.79L272.957 1012.98C271.781 1012.21 270.29 1011.72 268.883 1011.72C266.678 1011.72 264.935 1013 264.935 1015.12V1015.17C264.935 1017.27 266.783 1017.96 268.4 1018.4C269.702 1018.8 270.878 1019.11 270.878 1019.95V1020C270.878 1020.73 270.248 1021.19 269.156 1021.19C268.001 1021.19 266.762 1020.73 265.523 1019.83L264.389 1021.55C265.796 1022.66 267.497 1023.21 269.093 1023.21ZM278.884 1023.19C279.871 1023.19 280.522 1022.98 281.173 1022.62V1020.54C280.669 1020.79 280.144 1020.92 279.598 1020.92C278.737 1020.92 278.233 1020.52 278.233 1019.53V1014.1H281.215V1011.91H278.233V1008.87H275.692V1011.91H274.285V1014.1H275.692V1019.93C275.692 1022.37 277.015 1023.19 278.884 1023.19ZM293.018 1023.21C295.328 1023.21 297.134 1022.05 297.134 1019.72V1019.68C297.134 1017.69 295.286 1016.95 293.69 1016.45C292.388 1016.05 291.191 1015.67 291.191 1014.87V1014.83C291.191 1014.22 291.758 1013.74 292.745 1013.74C293.669 1013.74 294.803 1014.14 295.874 1014.79L296.882 1012.98C295.706 1012.21 294.215 1011.72 292.808 1011.72C290.603 1011.72 288.86 1013 288.86 1015.12V1015.17C288.86 1017.27 290.708 1017.96 292.325 1018.4C293.627 1018.8 294.803 1019.11 294.803 1019.95V1020C294.803 1020.73 294.173 1021.19 293.081 1021.19C291.926 1021.19 290.687 1020.73 289.448 1019.83L288.314 1021.55C289.721 1022.66 291.422 1023.21 293.018 1023.21ZM304.568 1023.25C307.991 1023.25 310.511 1020.61 310.511 1017.48V1017.43C310.511 1014.26 308.033 1011.68 304.61 1011.68C301.208 1011.68 298.688 1014.31 298.688 1017.48V1017.52C298.688 1020.67 301.187 1023.25 304.568 1023.25ZM304.61 1021.03C302.657 1021.03 301.229 1019.41 301.229 1017.48V1017.43C301.229 1015.5 302.531 1013.91 304.568 1013.91C306.563 1013.91 307.97 1015.52 307.97 1017.48V1017.52C307.97 1019.43 306.689 1021.03 304.61 1021.03ZM312.638 1023H315.2V1016.74C315.2 1015.04 316.145 1013.99 317.573 1013.99C319.001 1013.99 319.82 1014.94 319.82 1016.68V1023H322.361V1016.74C322.361 1014.96 323.327 1013.99 324.734 1013.99C326.162 1013.99 326.981 1014.94 326.981 1016.7V1023H329.522V1015.92C329.522 1013.21 328.073 1011.68 325.637 1011.68C323.957 1011.68 322.802 1012.46 321.899 1013.63C321.311 1012.46 320.177 1011.68 318.581 1011.68C316.88 1011.68 315.914 1012.6 315.2 1013.59V1011.91H312.638V1023ZM337.235 1023.25C339.272 1023.25 340.7 1022.43 341.771 1021.17L340.28 1019.85C339.377 1020.71 338.537 1021.17 337.277 1021.17C335.618 1021.17 334.358 1020.19 334.085 1018.36H342.233C342.254 1018.11 342.275 1017.88 342.275 1017.64C342.275 1014.45 340.49 1011.68 336.962 1011.68C333.791 1011.68 331.544 1014.26 331.544 1017.46V1017.5C331.544 1020.92 334.043 1023.25 337.235 1023.25ZM334.064 1016.68C334.295 1014.94 335.366 1013.76 336.941 1013.76C338.621 1013.76 339.587 1015.06 339.755 1016.68H334.064ZM354.043 1023.21C356.353 1023.21 358.159 1022.05 358.159 1019.72V1019.68C358.159 1017.69 356.311 1016.95 354.715 1016.45C353.413 1016.05 352.216 1015.67 352.216 1014.87V1014.83C352.216 1014.22 352.783 1013.74 353.77 1013.74C354.694 1013.74 355.828 1014.14 356.899 1014.79L357.907 1012.98C356.731 1012.21 355.24 1011.72 353.833 1011.72C351.628 1011.72 349.885 1013 349.885 1015.12V1015.17C349.885 1017.27 351.733 1017.96 353.35 1018.4C354.652 1018.8 355.828 1019.11 355.828 1019.95V1020C355.828 1020.73 355.198 1021.19 354.106 1021.19C352.951 1021.19 351.712 1020.73 350.473 1019.83L349.339 1021.55C350.746 1022.66 352.447 1023.21 354.043 1023.21ZM364.145 1023.23C365.846 1023.23 366.875 1022.35 367.61 1021.28V1023H370.172V1011.91H367.61V1018.17C367.61 1019.91 366.602 1020.9 365.111 1020.9C363.599 1020.9 362.738 1019.95 362.738 1018.21V1011.91H360.197V1018.97C360.197 1021.57 361.625 1023.23 364.145 1023.23ZM372.884 1026.36H375.446V1021.28C376.223 1022.31 377.378 1023.23 379.226 1023.23C381.851 1023.23 384.371 1021.17 384.371 1017.48V1017.43C384.371 1013.74 381.83 1011.68 379.226 1011.68C377.399 1011.68 376.265 1012.6 375.446 1013.76V1011.91H372.884V1026.36ZM378.617 1021.03C376.874 1021.03 375.383 1019.6 375.383 1017.48V1017.43C375.383 1015.31 376.874 1013.89 378.617 1013.89C380.318 1013.89 381.788 1015.29 381.788 1017.43V1017.48C381.788 1019.66 380.36 1021.03 378.617 1021.03ZM386.533 1026.36H389.095V1021.28C389.872 1022.31 391.027 1023.23 392.875 1023.23C395.5 1023.23 398.02 1021.17 398.02 1017.48V1017.43C398.02 1013.74 395.479 1011.68 392.875 1011.68C391.048 1011.68 389.914 1012.6 389.095 1013.76V1011.91H386.533V1026.36ZM392.266 1021.03C390.523 1021.03 389.032 1019.6 389.032 1017.48V1017.43C389.032 1015.31 390.523 1013.89 392.266 1013.89C393.967 1013.89 395.437 1015.29 395.437 1017.43V1017.48C395.437 1019.66 394.009 1021.03 392.266 1021.03ZM405.474 1023.25C408.897 1023.25 411.417 1020.61 411.417 1017.48V1017.43C411.417 1014.26 408.939 1011.68 405.516 1011.68C402.114 1011.68 399.594 1014.31 399.594 1017.48V1017.52C399.594 1020.67 402.093 1023.25 405.474 1023.25ZM405.516 1021.03C403.563 1021.03 402.135 1019.41 402.135 1017.48V1017.43C402.135 1015.5 403.437 1013.91 405.474 1013.91C407.469 1013.91 408.876 1015.52 408.876 1017.48V1017.52C408.876 1019.43 407.595 1021.03 405.516 1021.03ZM413.544 1023H416.106V1018.78C416.106 1015.84 417.639 1014.39 419.886 1014.39H420.033V1011.7C418.08 1011.62 416.799 1012.73 416.106 1014.41V1011.91H413.544V1023ZM425.517 1023.19C426.504 1023.19 427.155 1022.98 427.806 1022.62V1020.54C427.302 1020.79 426.777 1020.92 426.231 1020.92C425.37 1020.92 424.866 1020.52 424.866 1019.53V1014.1H427.848V1011.91H424.866V1008.87H422.325V1011.91H420.918V1014.1H422.325V1019.93C422.325 1022.37 423.648 1023.19 425.517 1023.19ZM430.036 1010.21H432.766V1007.8H430.036V1010.21ZM430.12 1023H432.682V1011.91H430.12V1023ZM435.541 1023H438.103V1016.74C438.103 1015 439.111 1013.99 440.602 1013.99C442.114 1013.99 442.975 1014.96 442.975 1016.7V1023H445.516V1015.92C445.516 1013.34 444.088 1011.68 441.568 1011.68C439.825 1011.68 438.838 1012.58 438.103 1013.61V1011.91H435.541V1023ZM453.08 1026.4C455.096 1026.4 456.629 1025.92 457.637 1024.91C458.582 1023.97 459.044 1022.58 459.044 1020.73V1011.91H456.503V1013.57C455.642 1012.54 454.487 1011.68 452.618 1011.68C450.014 1011.68 447.578 1013.61 447.578 1016.89V1016.93C447.578 1020.19 449.993 1022.12 452.618 1022.12C454.445 1022.12 455.6 1021.28 456.524 1020.1V1020.94C456.524 1023.19 455.285 1024.32 453.017 1024.32C451.505 1024.32 450.266 1023.9 449.069 1023.17L448.124 1025.08C449.573 1025.96 451.232 1026.4 453.08 1026.4ZM453.29 1019.95C451.547 1019.95 450.14 1018.72 450.14 1016.91V1016.87C450.14 1015.04 451.526 1013.84 453.29 1013.84C455.054 1013.84 456.545 1015.08 456.545 1016.87V1016.91C456.545 1018.72 455.054 1019.95 453.29 1019.95ZM270.221 1055.25C272.384 1055.25 273.665 1054.41 274.757 1053.17L273.224 1051.66C272.405 1052.48 271.544 1053.03 270.347 1053.03C268.394 1053.03 267.029 1051.45 267.029 1049.48V1049.43C267.029 1047.5 268.394 1045.91 270.242 1045.91C271.502 1045.91 272.321 1046.47 273.098 1047.29L274.694 1045.59C273.623 1044.46 272.342 1043.68 270.263 1043.68C266.924 1043.68 264.488 1046.33 264.488 1049.48V1049.52C264.488 1052.67 266.924 1055.25 270.221 1055.25ZM281.617 1055.25C285.04 1055.25 287.56 1052.61 287.56 1049.48V1049.43C287.56 1046.26 285.082 1043.68 281.659 1043.68C278.257 1043.68 275.737 1046.31 275.737 1049.48V1049.52C275.737 1052.67 278.236 1055.25 281.617 1055.25ZM281.659 1053.03C279.706 1053.03 278.278 1051.41 278.278 1049.48V1049.43C278.278 1047.5 279.58 1045.91 281.617 1045.91C283.612 1045.91 285.019 1047.52 285.019 1049.48V1049.52C285.019 1051.43 283.738 1053.03 281.659 1053.03ZM289.687 1058.36H292.249V1053.28C293.026 1054.31 294.181 1055.23 296.029 1055.23C298.654 1055.23 301.174 1053.17 301.174 1049.48V1049.43C301.174 1045.74 298.633 1043.68 296.029 1043.68C294.202 1043.68 293.068 1044.6 292.249 1045.76V1043.91H289.687V1058.36ZM295.42 1053.03C293.677 1053.03 292.186 1051.6 292.186 1049.48V1049.43C292.186 1047.31 293.677 1045.89 295.42 1045.89C297.121 1045.89 298.591 1047.29 298.591 1049.43V1049.48C298.591 1051.66 297.163 1053.03 295.42 1053.03ZM307.612 1052.14L304.504 1043.91H301.774L306.394 1055.02C305.974 1055.97 305.554 1056.28 304.819 1056.28C304.294 1056.28 303.811 1056.11 303.328 1055.86L302.467 1057.73C303.244 1058.17 304.021 1058.42 305.092 1058.42C306.877 1058.42 307.843 1057.58 308.746 1055.29L313.156 1043.91H310.51L307.612 1052.14ZM321.316 1055H323.857V1046.1H326.755V1044H323.815V1043.39C323.815 1042.27 324.298 1041.71 325.285 1041.71C325.852 1041.71 326.272 1041.81 326.776 1041.98V1039.84C326.209 1039.67 325.6 1039.54 324.697 1039.54C323.626 1039.54 322.807 1039.84 322.219 1040.43C321.61 1041.03 321.316 1041.94 321.316 1043.16V1043.97H319.909V1046.1H321.316V1055ZM333.271 1055.25C336.694 1055.25 339.214 1052.61 339.214 1049.48V1049.43C339.214 1046.26 336.736 1043.68 333.313 1043.68C329.911 1043.68 327.391 1046.31 327.391 1049.48V1049.52C327.391 1052.67 329.89 1055.25 333.271 1055.25ZM333.313 1053.03C331.36 1053.03 329.932 1051.41 329.932 1049.48V1049.43C329.932 1047.5 331.234 1045.91 333.271 1045.91C335.266 1045.91 336.673 1047.52 336.673 1049.48V1049.52C336.673 1051.43 335.392 1053.03 333.313 1053.03ZM341.341 1055H343.903V1050.78C343.903 1047.84 345.436 1046.39 347.683 1046.39H347.83V1043.7C345.877 1043.62 344.596 1044.73 343.903 1046.41V1043.91H341.341V1055ZM359.169 1055.19C360.156 1055.19 360.807 1054.98 361.458 1054.62V1052.54C360.954 1052.79 360.429 1052.92 359.883 1052.92C359.022 1052.92 358.518 1052.52 358.518 1051.53V1046.1H361.5V1043.91H358.518V1040.87H355.977V1043.91H354.57V1046.1H355.977V1051.93C355.977 1054.37 357.3 1055.19 359.169 1055.19ZM363.625 1055H366.187V1048.74C366.187 1047 367.195 1045.99 368.686 1045.99C370.198 1045.99 371.059 1046.96 371.059 1048.7V1055H373.6V1047.92C373.6 1045.34 372.172 1043.68 369.652 1043.68C367.909 1043.68 366.922 1044.58 366.187 1045.61V1039.67H363.625V1055ZM381.311 1055.25C383.348 1055.25 384.776 1054.43 385.847 1053.17L384.356 1051.85C383.453 1052.71 382.613 1053.17 381.353 1053.17C379.694 1053.17 378.434 1052.19 378.161 1050.36H386.309C386.33 1050.11 386.351 1049.88 386.351 1049.64C386.351 1046.45 384.566 1043.68 381.038 1043.68C377.867 1043.68 375.62 1046.26 375.62 1049.46V1049.5C375.62 1052.92 378.119 1055.25 381.311 1055.25ZM378.14 1048.68C378.371 1046.94 379.442 1045.76 381.017 1045.76C382.697 1045.76 383.663 1047.06 383.831 1048.68H378.14ZM394.36 1042.21H397.09V1039.8H394.36V1042.21ZM394.444 1055H397.006V1043.91H394.444V1055ZM404.465 1055.23C406.25 1055.23 407.426 1054.31 408.245 1053.15V1055H410.786V1039.67H408.245V1045.63C407.468 1044.58 406.271 1043.68 404.465 1043.68C401.819 1043.68 399.32 1045.74 399.32 1049.43V1049.48C399.32 1053.17 401.861 1055.23 404.465 1055.23ZM405.074 1053.03C403.331 1053.03 401.882 1051.62 401.882 1049.48V1049.43C401.882 1047.25 403.331 1045.89 405.074 1045.89C406.775 1045.89 408.287 1047.29 408.287 1049.43V1049.48C408.287 1051.6 406.775 1053.03 405.074 1053.03ZM418.618 1055.25C420.655 1055.25 422.083 1054.43 423.154 1053.17L421.663 1051.85C420.76 1052.71 419.92 1053.17 418.66 1053.17C417.001 1053.17 415.741 1052.19 415.468 1050.36H423.616C423.637 1050.11 423.658 1049.88 423.658 1049.64C423.658 1046.45 421.873 1043.68 418.345 1043.68C415.174 1043.68 412.927 1046.26 412.927 1049.46V1049.5C412.927 1052.92 415.426 1055.25 418.618 1055.25ZM415.447 1048.68C415.678 1046.94 416.749 1045.76 418.324 1045.76C420.004 1045.76 420.97 1047.06 421.138 1048.68H415.447ZM428.962 1055.23C430.663 1055.23 431.818 1054.52 432.574 1053.61V1055H435.052V1048.43C435.052 1046.98 434.674 1045.82 433.855 1045C433.057 1044.18 431.839 1043.76 430.18 1043.76C428.416 1043.76 427.219 1044.14 425.98 1044.67L426.673 1046.66C427.681 1046.24 428.584 1045.97 429.844 1045.97C431.629 1045.97 432.595 1046.79 432.595 1048.38V1048.66C431.734 1048.38 430.873 1048.2 429.613 1048.2C426.904 1048.2 425.014 1049.35 425.014 1051.77V1051.81C425.014 1054.05 426.883 1055.23 428.962 1055.23ZM429.676 1053.38C428.437 1053.38 427.513 1052.77 427.513 1051.7V1051.66C427.513 1050.48 428.458 1049.81 430.117 1049.81C431.125 1049.81 431.986 1050 432.637 1050.25V1051.01C432.637 1052.44 431.356 1053.38 429.676 1053.38Z" fill="white"/>
<defs>
<filter id="filter0_d" x="37" y="24.5872" width="688" height="1310.42" filterUnits="userSpaceOnUse" color-interpolation-filters="sRGB">
<feFlood flood-opacity="0" result="BackgroundImageFix"/>
<feColorMatrix in="SourceAlpha" type="matrix" values="0 0 0 0 0 0 0 0 0 0 0 0 0 0 0 0 0 0 127 0"/>
<feOffset dx="10" dy="10"/>
<feGaussianBlur stdDeviation="7"/>
<feColorMatrix type="matrix" values="0 0 0 0 0 0 0 0 0 0 0 0 0 0 0 0 0 0 0.1 0"/>
<feBlend mode="normal" in2="BackgroundImageFix" result="effect1_dropShadow"/>
<feBlend mode="normal" in="SourceGraphic" in2="effect1_dropShadow" result="shape"/>
</filter>
</defs>
</svg>
