<svg width="80" height="66" viewBox="0 0 80 66" fill="none" xmlns="http://www.w3.org/2000/svg">
<path d="M77.46 14.49V10.73H59.79" stroke="white" stroke-width="4" stroke-linecap="round" stroke-linejoin="round"/>
<path d="M21.1299 49.02V54.49L54.9099 54.38L68.8199 63.47V54.38H77.4599V33.29" stroke="white" stroke-width="4" stroke-linecap="round" stroke-linejoin="round"/>
<path d="M10.07 2H58.33V45.76L24.55 45.65L10.64 54.74V45.65H2V12.8" stroke="white" stroke-width="4" stroke-linecap="round" stroke-linejoin="round"/>
<path d="M14.1998 27.81C16.4808 27.81 18.3298 25.9609 18.3298 23.68C18.3298 21.3991 16.4808 19.55 14.1998 19.55C11.9189 19.55 10.0698 21.3991 10.0698 23.68C10.0698 25.9609 11.9189 27.81 14.1998 27.81Z" stroke="white" stroke-width="4" stroke-miterlimit="10"/>
<path d="M30.17 27.81C32.451 27.81 34.3 25.9609 34.3 23.68C34.3 21.3991 32.451 19.55 30.17 19.55C27.8891 19.55 26.04 21.3991 26.04 23.68C26.04 25.9609 27.8891 27.81 30.17 27.81Z" stroke="white" stroke-width="4" stroke-miterlimit="10"/>
<path d="M46.0099 27.81C48.2908 27.81 50.1399 25.9609 50.1399 23.68C50.1399 21.3991 48.2908 19.55 46.0099 19.55C43.7289 19.55 41.8799 21.3991 41.8799 23.68C41.8799 25.9609 43.7289 27.81 46.0099 27.81Z" stroke="white" stroke-width="4" stroke-miterlimit="10"/>
</svg>
